ffmpeg started on 2026-01-06 at 12:03:04
Report written to "D:\Convert\FFMetrics\reports\psnr_report-6.txt"
Log level: 32
Command line:
ffmpeg -hide_banner -nostdin -r 24000/1001 -i "F:\\Convert\\files\\Nanatsu_no_Maken_ga_Shihai_suru_[02]_[AniLibria_TV]_[WEBRip_1080p]_HEVC(58).mkv" -r 24000/1001 -i "F:\\Convert\\files\\Nanatsu_no_Maken_ga_Shihai_suru_[02]_[AniLibria_TV]_[WEBRip_1080p].mkv" -lavfi "[0:v]settb=AVTB,setpts=PTS-STARTPTS,format=pix_fmts=yuv420p10le,fps=24000/1001,scale=1920:1080:flags=bicubic[main];[1:v]settb=AVTB,setpts=PTS-STARTPTS,format=pix_fmts=yuv420p,fps=24000/1001,scale=1920:1080:flags=bicubic[ref];[main][ref]psnr=eof_action=endall:stats_file='D\\:/Convert/FFMetrics/logs/psnr_logfile-6.txt'" -f null -
Input #0, matroska,webm, from 'F:\Convert\files\Nanatsu_no_Maken_ga_Shihai_suru_[02]_[AniLibria_TV]_[WEBRip_1080p]_HEVC(58).mkv':
  Metadata:
    ENCODER         : Lavf61.7.100
  Duration: 00:23:40.14, start: -0.021000, bitrate: 1195 kb/s
  Stream #0:0: Video: hevc (Main 10), yuv420p10le(tv, bt709, progressive), 1920x1080 [SAR 1:1 DAR 16:9], 23.98 fps, 23.98 tbr, 1k tbn (default)
      Metadata:
        title           : Original
        ENCODER         : Lavc61.19.100 libx265
        BPS             : 955917
        DURATION        : 00:23:40.001708333
        NUMBER_OF_FRAMES: 34046
        NUMBER_OF_BYTES : 169675440
        _STATISTICS_WRITING_APP: mkvpropedit v94.0 ('Initiate') 64-bit
        _STATISTICS_WRITING_DATE_UTC: 2026-01-05 16:50:51
        _STATISTICS_TAGS: BPS DURATION NUMBER_OF_FRAMES NUMBER_OF_BYTES
  Stream #0:1(rus): Audio: aac (LC), 48000 Hz, stereo, fltp (default)
      Metadata:
        title           : AniLibria.TV
        ENCODER         : Lavc61.19.100 aac
        BPS             : 194075
        DURATION        : 00:23:40.117000000
        NUMBER_OF_FRAMES: 66569
        NUMBER_OF_BYTES : 34451214
        _STATISTICS_WRITING_APP: mkvpropedit v94.0 ('Initiate') 64-bit
        _STATISTICS_WRITING_DATE_UTC: 2026-01-05 16:50:51
        _STATISTICS_TAGS: BPS DURATION NUMBER_OF_FRAMES NUMBER_OF_BYTES
  Stream #0:2(rus): Subtitle: ass (ssa) (default)
      Metadata:
        title           : Надписи
        BPS             : 340
        DURATION        : 00:22:14.570000000
        NUMBER_OF_FRAMES: 381
        NUMBER_OF_BYTES : 56799
        _STATISTICS_WRITING_APP: mkvpropedit v94.0 ('Initiate') 64-bit
        _STATISTICS_WRITING_DATE_UTC: 2026-01-05 16:50:51
        _STATISTICS_TAGS: BPS DURATION NUMBER_OF_FRAMES NUMBER_OF_BYTES
  Stream #0:3(rus): Subtitle: ass (ssa)
      Metadata:
        title           : Субтитры
        BPS             : 489
        DURATION        : 00:23:37.340000000
        NUMBER_OF_FRAMES: 749
        NUMBER_OF_BYTES : 86800
        _STATISTICS_WRITING_APP: mkvpropedit v94.0 ('Initiate') 64-bit
        _STATISTICS_WRITING_DATE_UTC: 2026-01-05 16:50:51
        _STATISTICS_TAGS: BPS DURATION NUMBER_OF_FRAMES NUMBER_OF_BYTES
  Stream #0:4: Attachment: ttf
      Metadata:
        filename        : AGPMOD.TTF
        mimetype        : application/x-truetype-font
  Stream #0:5: Attachment: ttf
      Metadata:
        filename        : DFPSNGyosho-W5-CP-Spec.ttf
        mimetype        : application/x-truetype-font
  Stream #0:6: Attachment: ttf
      Metadata:
        filename        : Modernist One.ttf
        mimetype        : application/x-truetype-font
  Stream #0:7: Attachment: ttf
      Metadata:
        filename        : 1125177.TTF
        mimetype        : application/x-truetype-font
  Stream #0:8: Attachment: ttf
      Metadata:
        filename        : Roboto-Medium.ttf
        mimetype        : application/x-truetype-font
  Stream #0:9: Attachment: ttf
      Metadata:
        filename        : Roboto-MediumItalic.ttf
        mimetype        : application/x-truetype-font
  Stream #0:10: Attachment: ttf
      Metadata:
        filename        : arial.ttf
        mimetype        : application/x-truetype-font
  Stream #0:11: Attachment: ttf
      Metadata:
        filename        : arialbd.ttf
        mimetype        : application/x-truetype-font
  Stream #0:12: Attachment: ttf
      Metadata:
        filename        : comic.ttf
        mimetype        : application/x-truetype-font
  Stream #0:13: Attachment: ttf
      Metadata:
        filename        : comicbd.ttf
        mimetype        : application/x-truetype-font
  Stream #0:14: Attachment: ttf
      Metadata:
        filename        : times.ttf
        mimetype        : application/x-truetype-font
  Stream #0:15: Attachment: ttf
      Metadata:
        filename        : timesbd.ttf
        mimetype        : application/x-truetype-font
  Stream #0:16: Attachment: ttf
      Metadata:
        filename        : trebuc.ttf
        mimetype        : application/x-truetype-font
  Stream #0:17: Attachment: ttf
      Metadata:
        filename        : trebucbd.ttf
        mimetype        : application/x-truetype-font
  Stream #0:18: Attachment: ttf
      Metadata:
        filename        : verdana.ttf
        mimetype        : application/x-truetype-font
  Stream #0:19: Attachment: ttf
      Metadata:
        filename        : verdanab.ttf
        mimetype        : application/x-truetype-font
  Stream #0:20: Attachment: ttf
      Metadata:
        filename        : CONSOLA.TTF
        mimetype        : application/x-truetype-font
  Stream #0:21: Attachment: ttf
      Metadata:
        filename        : CONSOLAB.TTF
        mimetype        : application/x-truetype-font
Input #1, matroska,webm, from 'F:\Convert\files\Nanatsu_no_Maken_ga_Shihai_suru_[02]_[AniLibria_TV]_[WEBRip_1080p].mkv':
  Metadata:
    encoder         : libebml v1.4.4 + libmatroska v1.7.1
    creation_time   : 2023-07-15T11:47:58.000000Z
  Duration: 00:23:40.12, start: 0.000000, bitrate: 8335 kb/s
  Stream #1:0: Video: h264 (High), yuv420p(tv, bt709, progressive), 1920x1080 [SAR 1:1 DAR 16:9], 23.98 fps, 23.98 tbr, 1k tbn (default)
      Metadata:
        title           : Original
        BPS             : 7971709
        DURATION        : 00:23:40.045000000
        NUMBER_OF_FRAMES: 34047
        NUMBER_OF_BYTES : 1415023222
        _STATISTICS_WRITING_APP: mkvmerge v77.0 ('Elemental') 64-bit
        _STATISTICS_WRITING_DATE_UTC: 2023-07-15 11:47:58
        _STATISTICS_TAGS: BPS DURATION NUMBER_OF_FRAMES NUMBER_OF_BYTES
  Stream #1:1(rus): Audio: aac (LC), 48000 Hz, stereo, fltp (default)
      Metadata:
        title           : AniLibria.TV
        BPS             : 191999
        DURATION        : 00:23:40.117000000
        NUMBER_OF_FRAMES: 66568
        NUMBER_OF_BYTES : 34082731
        _STATISTICS_WRITING_APP: mkvmerge v77.0 ('Elemental') 64-bit
        _STATISTICS_WRITING_DATE_UTC: 2023-07-15 11:47:58
        _STATISTICS_TAGS: BPS DURATION NUMBER_OF_FRAMES NUMBER_OF_BYTES
  Stream #1:2(jpn): Audio: aac (LC), 44100 Hz, stereo, fltp
      Metadata:
        title           : Original
        BPS             : 128000
        DURATION        : 00:23:40.109000000
        NUMBER_OF_FRAMES: 61159
        NUMBER_OF_BYTES : 22721748
        _STATISTICS_WRITING_APP: mkvmerge v77.0 ('Elemental') 64-bit
        _STATISTICS_WRITING_DATE_UTC: 2023-07-15 11:47:58
        _STATISTICS_TAGS: BPS DURATION NUMBER_OF_FRAMES NUMBER_OF_BYTES
  Stream #1:3(rus): Subtitle: ass (ssa) (default)
      Metadata:
        title           : Надписи
        BPS             : 340
        DURATION        : 00:22:14.570000000
        NUMBER_OF_FRAMES: 381
        NUMBER_OF_BYTES : 56799
        _STATISTICS_WRITING_APP: mkvmerge v77.0 ('Elemental') 64-bit
        _STATISTICS_WRITING_DATE_UTC: 2023-07-15 11:47:58
        _STATISTICS_TAGS: BPS DURATION NUMBER_OF_FRAMES NUMBER_OF_BYTES
  Stream #1:4(rus): Subtitle: ass (ssa)
      Metadata:
        title           : Субтитры
        BPS             : 489
        DURATION        : 00:23:37.340000000
        NUMBER_OF_FRAMES: 749
        NUMBER_OF_BYTES : 86800
        _STATISTICS_WRITING_APP: mkvmerge v77.0 ('Elemental') 64-bit
        _STATISTICS_WRITING_DATE_UTC: 2023-07-15 11:47:58
        _STATISTICS_TAGS: BPS DURATION NUMBER_OF_FRAMES NUMBER_OF_BYTES
  Stream #1:5: Attachment: ttf
      Metadata:
        filename        : AGPMOD.TTF
        mimetype        : application/x-truetype-font
  Stream #1:6: Attachment: ttf
      Metadata:
        filename        : DFPSNGyosho-W5-CP-Spec.ttf
        mimetype        : application/x-truetype-font
  Stream #1:7: Attachment: ttf
      Metadata:
        filename        : Modernist One.ttf
        mimetype        : application/x-truetype-font
  Stream #1:8: Attachment: ttf
      Metadata:
        filename        : 1125177.TTF
        mimetype        : application/x-truetype-font
  Stream #1:9: Attachment: ttf
      Metadata:
        filename        : Roboto-Medium.ttf
        mimetype        : application/x-truetype-font
  Stream #1:10: Attachment: ttf
      Metadata:
        filename        : Roboto-MediumItalic.ttf
        mimetype        : application/x-truetype-font
  Stream #1:11: Attachment: ttf
      Metadata:
        filename        : arial.ttf
        mimetype        : application/x-truetype-font
  Stream #1:12: Attachment: ttf
      Metadata:
        filename        : arialbd.ttf
        mimetype        : application/x-truetype-font
  Stream #1:13: Attachment: ttf
      Metadata:
        filename        : comic.ttf
        mimetype        : application/x-truetype-font
  Stream #1:14: Attachment: ttf
      Metadata:
        filename        : comicbd.ttf
        mimetype        : application/x-truetype-font
  Stream #1:15: Attachment: ttf
      Metadata:
        filename        : times.ttf
        mimetype        : application/x-truetype-font
  Stream #1:16: Attachment: ttf
      Metadata:
        filename        : timesbd.ttf
        mimetype        : application/x-truetype-font
  Stream #1:17: Attachment: ttf
      Metadata:
        filename        : trebuc.ttf
        mimetype        : application/x-truetype-font
  Stream #1:18: Attachment: ttf
      Metadata:
        filename        : trebucbd.ttf
        mimetype        : application/x-truetype-font
  Stream #1:19: Attachment: ttf
      Metadata:
        filename        : verdana.ttf
        mimetype        : application/x-truetype-font
  Stream #1:20: Attachment: ttf
      Metadata:
        filename        : verdanab.ttf
        mimetype        : application/x-truetype-font
  Stream #1:21: Attachment: ttf
      Metadata:
        filename        : CONSOLA.TTF
        mimetype        : application/x-truetype-font
  Stream #1:22: Attachment: ttf
      Metadata:
        filename        : CONSOLAB.TTF
        mimetype        : application/x-truetype-font
Stream mapping:
  Stream #0:0 (hevc) -> settb:default
  Stream #1:0 (h264) -> settb:default
  psnr:default -> Stream #0:0 (wrapped_avframe)
  Stream #0:1 -> #0:1 (aac (native) -> pcm_s16le (native))
Output #0, null, to 'pipe:':
  Metadata:
    encoder         : Lavf61.7.100
  Stream #0:0: Video: wrapped_avframe, yuv420p10le(tv, bt709, progressive), 1920x1080 [SAR 1:1 DAR 16:9], q=2-31, 200 kb/s, 23.98 fps, 23.98 tbn
      Metadata:
        encoder         : Lavc61.19.100 wrapped_avframe
  Stream #0:1(rus): Audio: pcm_s16le, 48000 Hz, stereo, s16, 1536 kb/s (default)
      Metadata:
        title           : AniLibria.TV
        _STATISTICS_TAGS: BPS DURATION NUMBER_OF_FRAMES NUMBER_OF_BYTES
        BPS             : 194075
        DURATION        : 00:23:40.117000000
        NUMBER_OF_FRAMES: 66569
        NUMBER_OF_BYTES : 34451214
        _STATISTICS_WRITING_APP: mkvpropedit v94.0 ('Initiate') 64-bit
        _STATISTICS_WRITING_DATE_UTC: 2026-01-05 16:50:51
        encoder         : Lavc61.19.100 pcm_s16le
frame=  179 fps=0.0 q=-0.0 size=N/A time=00:00:07.46 bitrate=N/A speed=14.7x    frame=  438 fps=429 q=-0.0 size=N/A time=00:00:18.26 bitrate=N/A speed=17.9x    frame=  731 fps=473 q=-0.0 size=N/A time=00:00:30.48 bitrate=N/A speed=19.7x    frame= 1012 fps=492 q=-0.0 size=N/A time=00:00:42.20 bitrate=N/A speed=20.5x    frame= 1269 fps=494 q=-0.0 size=N/A time=00:00:52.92 bitrate=N/A speed=20.6x    frame= 1535 fps=498 q=-0.0 size=N/A time=00:01:04.02 bitrate=N/A speed=20.8x    frame= 1817 fps=504 q=-0.0 size=N/A time=00:01:15.78 bitrate=N/A speed=  21x    frame= 2069 fps=503 q=-0.0 size=N/A time=00:01:26.29 bitrate=N/A speed=  21x    frame= 2269 fps=490 q=-0.0 size=N/A time=00:01:34.63 bitrate=N/A speed=20.5x    frame= 2483 fps=482 q=-0.0 size=N/A time=00:01:43.56 bitrate=N/A speed=20.1x    frame= 2692 fps=475 q=-0.0 size=N/A time=00:01:52.27 bitrate=N/A speed=19.8x    frame= 2890 fps=468 q=-0.0 size=N/A time=00:02:00.53 bitrate=N/A speed=19.5x    frame= 3083 fps=460 q=-0.0 size=N/A time=00:02:08.58 bitrate=N/A speed=19.2x    frame= 3271 fps=454 q=-0.0 size=N/A time=00:02:16.42 bitrate=N/A speed=18.9x    frame= 3465 fps=449 q=-0.0 size=N/A time=00:02:24.51 bitrate=N/A speed=18.7x    frame= 3669 fps=445 q=-0.0 size=N/A time=00:02:33.02 bitrate=N/A speed=18.6x    frame= 3896 fps=445 q=-0.0 size=N/A time=00:02:42.49 bitrate=N/A speed=18.6x    frame= 4095 fps=442 q=-0.0 size=N/A time=00:02:50.79 bitrate=N/A speed=18.4x    frame= 4335 fps=443 q=-0.0 size=N/A time=00:03:00.80 bitrate=N/A speed=18.5x    frame= 4607 fps=447 q=-0.0 size=N/A time=00:03:12.15 bitrate=N/A speed=18.6x    frame= 4847 fps=448 q=-0.0 size=N/A time=00:03:22.16 bitrate=N/A speed=18.7x    frame= 5056 fps=446 q=-0.0 size=N/A time=00:03:30.87 bitrate=N/A speed=18.6x    frame= 5205 fps=439 q=-0.0 size=N/A time=00:03:37.09 bitrate=N/A speed=18.3x    frame= 5451 fps=441 q=-0.0 size=N/A time=00:03:47.35 bitrate=N/A speed=18.4x    frame= 5701 fps=443 q=-0.0 size=N/A time=00:03:57.77 bitrate=N/A speed=18.5x    frame= 5983 fps=447 q=-0.0 size=N/A time=00:04:09.54 bitrate=N/A speed=18.6x    frame= 6245 fps=449 q=-0.0 size=N/A time=00:04:20.46 bitrate=N/A speed=18.7x    frame= 6519 fps=452 q=-0.0 size=N/A time=00:04:31.89 bitrate=N/A speed=18.8x    frame= 6785 fps=454 q=-0.0 size=N/A time=00:04:42.99 bitrate=N/A speed=18.9x    frame= 7060 fps=456 q=-0.0 size=N/A time=00:04:54.46 bitrate=N/A speed=  19x    frame= 7313 fps=458 q=-0.0 size=N/A time=00:05:05.01 bitrate=N/A speed=19.1x    frame= 7573 fps=459 q=-0.0 size=N/A time=00:05:15.85 bitrate=N/A speed=19.2x    frame= 7871 fps=463 q=-0.0 size=N/A time=00:05:28.28 bitrate=N/A speed=19.3x    frame= 8121 fps=463 q=-0.0 size=N/A time=00:05:38.71 bitrate=N/A speed=19.3x    frame= 8398 fps=466 q=-0.0 size=N/A time=00:05:50.26 bitrate=N/A speed=19.4x    frame= 8680 fps=468 q=-0.0 size=N/A time=00:06:02.02 bitrate=N/A speed=19.5x    frame= 8910 fps=467 q=-0.0 size=N/A time=00:06:11.62 bitrate=N/A speed=19.5x    frame= 9172 fps=468 q=-0.0 size=N/A time=00:06:22.54 bitrate=N/A speed=19.5x    frame= 9399 fps=468 q=-0.0 size=N/A time=00:06:32.01 bitrate=N/A speed=19.5x    frame= 9677 fps=469 q=-0.0 size=N/A time=00:06:43.61 bitrate=N/A speed=19.6x    frame= 9920 fps=469 q=-0.0 size=N/A time=00:06:53.74 bitrate=N/A speed=19.6x    frame=10127 fps=468 q=-0.0 size=N/A time=00:07:02.38 bitrate=N/A speed=19.5x    frame=10350 fps=467 q=-0.0 size=N/A time=00:07:11.68 bitrate=N/A speed=19.5x    frame=10523 fps=464 q=-0.0 size=N/A time=00:07:18.89 bitrate=N/A speed=19.3x    frame=10727 fps=462 q=-0.0 size=N/A time=00:07:27.40 bitrate=N/A speed=19.3x    frame=10915 fps=460 q=-0.0 size=N/A time=00:07:35.24 bitrate=N/A speed=19.2x    frame=11093 fps=457 q=-0.0 size=N/A time=00:07:42.67 bitrate=N/A speed=19.1x    frame=11338 fps=458 q=-0.0 size=N/A time=00:07:52.88 bitrate=N/A speed=19.1x    frame=11495 fps=455 q=-0.0 size=N/A time=00:07:59.43 bitrate=N/A speed=  19x    frame=11730 fps=455 q=-0.0 size=N/A time=00:08:09.23 bitrate=N/A speed=  19x    frame=11985 fps=456 q=-0.0 size=N/A time=00:08:19.87 bitrate=N/A speed=  19x    frame=12233 fps=456 q=-0.0 size=N/A time=00:08:30.21 bitrate=N/A speed=  19x    frame=12490 fps=457 q=-0.0 size=N/A time=00:08:40.93 bitrate=N/A speed=19.1x    frame=12671 fps=455 q=-0.0 size=N/A time=00:08:48.48 bitrate=N/A speed=  19x    frame=12890 fps=454 q=-0.0 size=N/A time=00:08:57.62 bitrate=N/A speed=  19x    frame=13151 fps=455 q=-0.0 size=N/A time=00:09:08.50 bitrate=N/A speed=  19x    frame=13432 fps=457 q=-0.0 size=N/A time=00:09:20.22 bitrate=N/A speed=19.1x    frame=13707 fps=458 q=-0.0 size=N/A time=00:09:31.69 bitrate=N/A speed=19.1x    frame=13966 fps=459 q=-0.0 size=N/A time=00:09:42.49 bitrate=N/A speed=19.1x    frame=14237 fps=460 q=-0.0 size=N/A time=00:09:53.80 bitrate=N/A speed=19.2x    frame=14497 fps=461 q=-0.0 size=N/A time=00:10:04.64 bitrate=N/A speed=19.2x    frame=14751 fps=461 q=-0.0 size=N/A time=00:10:15.23 bitrate=N/A speed=19.2x    frame=15034 fps=463 q=-0.0 size=N/A time=00:10:27.04 bitrate=N/A speed=19.3x    frame=15314 fps=464 q=-0.0 size=N/A time=00:10:38.72 bitrate=N/A speed=19.3x    frame=15564 fps=464 q=-0.0 size=N/A time=00:10:49.14 bitrate=N/A speed=19.4x    frame=15785 fps=464 q=-0.0 size=N/A time=00:10:58.36 bitrate=N/A speed=19.3x    frame=16050 fps=464 q=-0.0 size=N/A time=00:11:09.41 bitrate=N/A speed=19.4x    frame=16286 fps=464 q=-0.0 size=N/A time=00:11:19.26 bitrate=N/A speed=19.4x    frame=16492 fps=463 q=-0.0 size=N/A time=00:11:27.85 bitrate=N/A speed=19.3x    frame=16714 fps=463 q=-0.0 size=N/A time=00:11:37.11 bitrate=N/A speed=19.3x    frame=16923 fps=462 q=-0.0 size=N/A time=00:11:45.83 bitrate=N/A speed=19.3x    frame=17117 fps=461 q=-0.0 size=N/A time=00:11:53.92 bitrate=N/A speed=19.2x    frame=17352 fps=461 q=-0.0 size=N/A time=00:12:03.72 bitrate=N/A speed=19.2x    frame=17585 fps=461 q=-0.0 size=N/A time=00:12:13.44 bitrate=N/A speed=19.2x    frame=17830 fps=461 q=-0.0 size=N/A time=00:12:23.65 bitrate=N/A speed=19.2x    frame=18044 fps=460 q=-0.0 size=N/A time=00:12:32.58 bitrate=N/A speed=19.2x    frame=18280 fps=460 q=-0.0 size=N/A time=00:12:42.42 bitrate=N/A speed=19.2x    frame=18524 fps=460 q=-0.0 size=N/A time=00:12:52.60 bitrate=N/A speed=19.2x    frame=18749 fps=460 q=-0.0 size=N/A time=00:13:01.98 bitrate=N/A speed=19.2x    frame=18979 fps=460 q=-0.0 size=N/A time=00:13:11.58 bitrate=N/A speed=19.2x    frame=19229 fps=460 q=-0.0 size=N/A time=00:13:22.00 bitrate=N/A speed=19.2x    frame=19487 fps=461 q=-0.0 size=N/A time=00:13:32.77 bitrate=N/A speed=19.2x    frame=19743 fps=461 q=-0.0 size=N/A time=00:13:43.44 bitrate=N/A speed=19.2x    frame=20027 fps=462 q=-0.0 size=N/A time=00:13:55.29 bitrate=N/A speed=19.3x    frame=20296 fps=463 q=-0.0 size=N/A time=00:14:06.51 bitrate=N/A speed=19.3x    frame=20547 fps=463 q=-0.0 size=N/A time=00:14:16.98 bitrate=N/A speed=19.3x    frame=20811 fps=464 q=-0.0 size=N/A time=00:14:27.99 bitrate=N/A speed=19.3x    frame=21072 fps=464 q=-0.0 size=N/A time=00:14:38.87 bitrate=N/A speed=19.4x    frame=21345 fps=465 q=-0.0 size=N/A time=00:14:50.26 bitrate=N/A speed=19.4x    frame=21602 fps=465 q=-0.0 size=N/A time=00:15:00.98 bitrate=N/A speed=19.4x    frame=21851 fps=466 q=-0.0 size=N/A time=00:15:11.36 bitrate=N/A speed=19.4x    frame=22072 fps=465 q=-0.0 size=N/A time=00:15:20.58 bitrate=N/A speed=19.4x    frame=22338 fps=466 q=-0.0 size=N/A time=00:15:31.68 bitrate=N/A speed=19.4x    frame=22633 fps=467 q=-0.0 size=N/A time=00:15:43.98 bitrate=N/A speed=19.5x    frame=22917 fps=468 q=-0.0 size=N/A time=00:15:55.82 bitrate=N/A speed=19.5x    frame=23200 fps=469 q=-0.0 size=N/A time=00:16:07.63 bitrate=N/A speed=19.5x    frame=23477 fps=469 q=-0.0 size=N/A time=00:16:19.18 bitrate=N/A speed=19.6x    frame=23759 fps=470 q=-0.0 size=N/A time=00:16:30.94 bitrate=N/A speed=19.6x    frame=24074 fps=471 q=-0.0 size=N/A time=00:16:44.08 bitrate=N/A speed=19.7x    frame=24367 fps=472 q=-0.0 size=N/A time=00:16:56.30 bitrate=N/A speed=19.7x    frame=24634 fps=473 q=-0.0 size=N/A time=00:17:07.44 bitrate=N/A speed=19.7x    frame=24865 fps=473 q=-0.0 size=N/A time=00:17:17.07 bitrate=N/A speed=19.7x    frame=25161 fps=474 q=-0.0 size=N/A time=00:17:29.42 bitrate=N/A speed=19.8x    frame=25444 fps=474 q=-0.0 size=N/A time=00:17:41.22 bitrate=N/A speed=19.8x    frame=25691 fps=474 q=-0.0 size=N/A time=00:17:51.52 bitrate=N/A speed=19.8x    frame=25933 fps=474 q=-0.0 size=N/A time=00:18:01.62 bitrate=N/A speed=19.8x    frame=26200 fps=475 q=-0.0 size=N/A time=00:18:12.75 bitrate=N/A speed=19.8x    frame=26457 fps=475 q=-0.0 size=N/A time=00:18:23.47 bitrate=N/A speed=19.8x    frame=26725 fps=475 q=-0.0 size=N/A time=00:18:34.65 bitrate=N/A speed=19.8x    frame=26976 fps=475 q=-0.0 size=N/A time=00:18:45.12 bitrate=N/A speed=19.8x    frame=27252 fps=476 q=-0.0 size=N/A time=00:18:56.63 bitrate=N/A speed=19.9x    frame=27546 fps=477 q=-0.0 size=N/A time=00:19:08.89 bitrate=N/A speed=19.9x    frame=27822 fps=477 q=-0.0 size=N/A time=00:19:20.40 bitrate=N/A speed=19.9x    frame=28085 fps=478 q=-0.0 size=N/A time=00:19:31.37 bitrate=N/A speed=19.9x    frame=28379 fps=479 q=-0.0 size=N/A time=00:19:43.64 bitrate=N/A speed=  20x    frame=28674 fps=479 q=-0.0 size=N/A time=00:19:55.94 bitrate=N/A speed=  20x    frame=28959 fps=480 q=-0.0 size=N/A time=00:20:07.83 bitrate=N/A speed=  20x    frame=29225 fps=480 q=-0.0 size=N/A time=00:20:18.92 bitrate=N/A speed=  20x    frame=29498 fps=481 q=-0.0 size=N/A time=00:20:30.31 bitrate=N/A speed=  20x    frame=29801 fps=481 q=-0.0 size=N/A time=00:20:42.95 bitrate=N/A speed=20.1x    frame=30061 fps=482 q=-0.0 size=N/A time=00:20:53.79 bitrate=N/A speed=20.1x    frame=30324 fps=482 q=-0.0 size=N/A time=00:21:04.76 bitrate=N/A speed=20.1x    frame=30588 fps=482 q=-0.0 size=N/A time=00:21:15.77 bitrate=N/A speed=20.1x    frame=30849 fps=482 q=-0.0 size=N/A time=00:21:26.66 bitrate=N/A speed=20.1x    frame=31127 fps=483 q=-0.0 size=N/A time=00:21:38.25 bitrate=N/A speed=20.1x    frame=31410 fps=483 q=-0.0 size=N/A time=00:21:50.05 bitrate=N/A speed=20.2x    frame=31685 fps=484 q=-0.0 size=N/A time=00:22:01.52 bitrate=N/A speed=20.2x    frame=31961 fps=484 q=-0.0 size=N/A time=00:22:13.04 bitrate=N/A speed=20.2x    frame=32236 fps=484 q=-0.0 size=N/A time=00:22:24.50 bitrate=N/A speed=20.2x    frame=32510 fps=485 q=-0.0 size=N/A time=00:22:35.93 bitrate=N/A speed=20.2x    frame=32797 fps=485 q=-0.0 size=N/A time=00:22:47.90 bitrate=N/A speed=20.2x    frame=33070 fps=486 q=-0.0 size=N/A time=00:22:59.29 bitrate=N/A speed=20.3x    frame=33338 fps=486 q=-0.0 size=N/A time=00:23:10.47 bitrate=N/A speed=20.3x    frame=33604 fps=486 q=-0.0 size=N/A time=00:23:21.56 bitrate=N/A speed=20.3x    frame=33887 fps=487 q=-0.0 size=N/A time=00:23:33.37 bitrate=N/A speed=20.3x    [Parsed_psnr_10 @ 000001e737a06c40] PSNR y:48.933520 u:48.501854 v:48.363600 average:48.759896 min:39.961998 max:76.830322
[out#0/null @ 000001e71f389b40] video:14629KiB audio:266276KiB subtitle:0KiB other streams:0KiB global headers:0KiB muxing overhead: unknown
frame=34046 fps=487 q=-0.0 Lsize=N/A time=00:23:40.00 bitrate=N/A speed=20.3x    
